# xmcd
#
# Track frame offsets:
#	150
#	19207
#	41582
#	55992
#	73832
#	88930
#	110462
#	123515
#	141022
#	157454
#
# Disc length: 2297 seconds
# Revision: 0
# Processed by: cddbd v1.5.2PL0 Copyright (c) Steve Scherf et al.
# Submitted via: dBpowerAMP V12.0
#
DISCID=9608f70a
DTITLE=Various Artist - Here I Come
DYEAR=2014
DGENRE=Booty Bass
TTITLE0=Eddie Cotton - Here I Come
TTITLE1=	 - A Woman's Love
TTITLE2=	 - Pay to Play
TTITLE3=	 - Friend to the End
TTITLE4=	 - Get Your Own
TTITLE5=	 - My Boo
TTITLE6=	 - Leave Love Alone
TTITLE7=	 - Back in a Bit
TTITLE8=	 - No Love Back Guarantee
TTITLE9=	 - Berry So Black
EXTD=
EXTT0=
EXTT1=
EXTT2=
EXTT3=
EXTT4=
EXTT5=
EXTT6=
EXTT7=
EXTT8=
EXTT9=
PLAYORDER=
